<svg id="canvas" height="auto" xmlns="http://www.w3.org/2000/svg" version="1.1" xmlns:xlink="http://www.w3.org/1999/xlink" viewBox="0 0 900 512" width="auto" style="width: auto; height: auto;"><defs><linearGradient gradientTransform="matrix(6.123233995736766e-17,1,-1,6.123233995736766e-17,0,0)"><stop stop-color="#604848" offset="0"/><stop stop-color="#606048" offset="1"/></linearGradient><linearGradient gradientTransform="matrix(6.123233995736766e-17,1,-1,6.123233995736766e-17,0,0)" id="SvgjsLinearGradient1680"><stop stop-color="#789048" offset="0"/><stop stop-color="#489060" offset="1"/></linearGradient><linearGradient gradientTransform="matrix(6.123233995736766e-17,1,-1,6.123233995736766e-17,0,0)" id="SvgjsLinearGradient1681"><stop stop-color="#607848" offset="0"/><stop stop-color="#487860" offset="1"/></linearGradient><linearGradient gradientTransform="matrix(6.123233995736766e-17,1,-1,6.123233995736766e-17,0,0)" id="SvgjsLinearGradient1682"><stop stop-color="#c0d860" offset="0"/><stop stop-color="#60d878" offset="1"/></linearGradient><linearGradient gradientTransform="matrix(6.123233995736766e-17,1,-1,6.123233995736766e-17,0,0)"><stop stop-color="#f0f0d8" offset="0"/><stop stop-color="#d8f0d8" offset="1"/></linearGradient></defs><rect width="900" height="512" fill="url(#SvgjsLinearGradient1680)"/><polyline points="0,512 0,81.76789560749552 112.5,26.748500707049573 225,67.23407697906677 337.5,50.9455754495716 450,62.088290617003 562.5,31.429071750086372 675,11.568839954151493 787.5,30.040939017866066 900,64.13302685590688 902,514" fill="url(#SvgjsLinearGradient1680)" opacity="0.9"/><polyline points="0,512 0,209.37081888735108 112.5,96.08891800509055 225,135.32201655565348 337.5,173.88245295812789 450,130.92923556207137 562.5,168.0088198819546 675,98.78462829333446 787.5,128.01639986081145 900,163.6355203648596 902,514" fill="url(#SvgjsLinearGradient1680)" opacity="0.9"/><polyline points="0,512 0,312.43730598439845 112.5,222.90500190013722 225,277.03460627551755 337.5,274.1294547814227 450,237.75489859909453 562.5,251.79263163401356 675,185.25246979076059 787.5,206.4818480827061 900,281.7718743031132 902,514" fill="url(#SvgjsLinearGradient1680)" opacity="0.9"/><polyline points="0,512 0,436.6613926523794 112.5,338.09620412520934 225,369.9063359098995 337.5,394.8416876580421 450,310.48571077069255 562.5,375.9262452923275 675,295.50138798974774 787.5,328.0681527365307 900,420.899487469657 902,514" fill="url(#SvgjsLinearGradient1681)" opacity="0.9"/><polyline points="0,512 0,544.7926151628219 112.5,414.9949506651539 225,466.06819734256266 337.5,478.1284179043888 450,409.8220023932183 562.5,486.8828887242602 675,416.956236379927 787.5,437.80559278755385 900,518.241325215432 902,514" fill="url(#SvgjsLinearGradient1682)" opacity="0.9"/><polyline points="0,512 0,670.7532294627612 112.5,478.13619680899353 225,564.3308009624866 337.5,587.7169396459963 450,514.5946022995138 562.5,566.5645839377107 675,540.4858732796711 787.5,516.8249563291606 900,602.1650427869923 902,514" fill="url(#SvgjsLinearGradient1682)" opacity="0.9"/></svg>