<svg id="canvas" height="auto" xmlns="http://www.w3.org/2000/svg" version="1.1" xmlns:xlink="http://www.w3.org/1999/xlink" viewBox="0 0 900 512" width="auto" style="width: auto; height: auto;"><defs><linearGradient gradientTransform="matrix(6.123233995736766e-17,1,-1,6.123233995736766e-17,0,0)" id="SvgjsLinearGradient1910"><stop stop-color="#c0d860" offset="0"/><stop stop-color="#60d878" offset="1"/></linearGradient><linearGradient gradientTransform="matrix(6.123233995736766e-17,1,-1,6.123233995736766e-17,0,0)" id="SvgjsLinearGradient1913"><stop stop-color="#789048" offset="0"/><stop stop-color="#489060" offset="1"/></linearGradient><linearGradient gradientTransform="matrix(6.123233995736766e-17,1,-1,6.123233995736766e-17,0,0)" id="SvgjsLinearGradient1912"><stop stop-color="#604848" offset="0"/><stop stop-color="#606048" offset="1"/></linearGradient><linearGradient gradientTransform="matrix(6.123233995736766e-17,1,-1,6.123233995736766e-17,0,0)" id="SvgjsLinearGradient1911"><stop stop-color="#607848" offset="0"/><stop stop-color="#487860" offset="1"/></linearGradient><linearGradient gradientTransform="matrix(6.123233995736766e-17,1,-1,6.123233995736766e-17,0,0)"><stop stop-color="#f0f0d8" offset="0"/><stop stop-color="#d8f0d8" offset="1"/></linearGradient></defs><rect width="900" height="512" fill="url(#SvgjsLinearGradient1910)"/><polyline points="0,512 0,61.70046608719065 112.5,25.09424988290065 225,92.20338456863816 337.5,6.886544846126792 450,54.61316373914782 562.5,80.66723615706276 675,101.1258140272086 787.5,24.218355239716338 900,20.645319570436243 902,514" fill="url(#SvgjsLinearGradient1911)" opacity="0.9"/><polyline points="0,512 0,145.37777962210166 112.5,102.90829329899196 225,166.28836393456487 337.5,113.60247703208645 450,191.8037199468515 562.5,184.56023700066834 675,223.46805623839873 787.5,120.9868411524836 900,103.0093241379545 902,514" fill="url(#SvgjsLinearGradient1911)" opacity="0.9"/><polyline points="0,512 0,285.7616446093298 112.5,213.36473892707488 225,260.3718087249854 337.5,251.78808230589425 450,322.440283471554 562.5,254.67194306213185 675,299.1790796942858 787.5,256.59154539638183 900,170.40320782411746 902,514" fill="url(#SvgjsLinearGradient1911)" opacity="0.9"/><polyline points="0,512 0,356.2552653121389 112.5,278.09823152576246 225,354.80641340701834 337.5,351.0247618012537 450,386.1156223683955 562.5,363.9737134319771 675,397.0795492076462 787.5,377.6773450543543 900,309.0194553427673 902,514" fill="url(#SvgjsLinearGradient1910)" opacity="0.9"/><polyline points="0,512 0,495.76173141144966 112.5,395.4993030769108 225,438.0305530411531 337.5,430.88672117405434 450,518.992450033202 562.5,482.5680430353932 675,524.1143765177584 787.5,480.4151028547288 900,420.7334643238073 902,514" fill="url(#SvgjsLinearGradient1912)" opacity="0.9"/><polyline points="0,512 0,613.1510255853227 112.5,459.92255173376327 225,566.4694907020864 337.5,524.8133130762011 450,584.8322376865945 562.5,620.8200342891125 675,653.6999971863402 787.5,565.4530127347789 900,498.4559925893192 902,514" fill="url(#SvgjsLinearGradient1913)" opacity="0.9"/></svg>