<svg id="canvas" height="auto" xmlns="http://www.w3.org/2000/svg" version="1.1" xmlns:xlink="http://www.w3.org/1999/xlink" viewBox="0 0 900 512" width="auto" style="width: auto; height: auto;"><defs><linearGradient gradientTransform="matrix(6.123233995736766e-17,1,-1,6.123233995736766e-17,0,0)" id="SvgjsLinearGradient2047"><stop stop-color="#607848" offset="0"/><stop stop-color="#487860" offset="1"/></linearGradient><linearGradient gradientTransform="matrix(6.123233995736766e-17,1,-1,6.123233995736766e-17,0,0)" id="SvgjsLinearGradient2050"><stop stop-color="#789048" offset="0"/><stop stop-color="#489060" offset="1"/></linearGradient><linearGradient gradientTransform="matrix(6.123233995736766e-17,1,-1,6.123233995736766e-17,0,0)" id="SvgjsLinearGradient2048"><stop stop-color="#f0f0d8" offset="0"/><stop stop-color="#d8f0d8" offset="1"/></linearGradient><linearGradient gradientTransform="matrix(6.123233995736766e-17,1,-1,6.123233995736766e-17,0,0)" id="SvgjsLinearGradient2049"><stop stop-color="#c0d860" offset="0"/><stop stop-color="#60d878" offset="1"/></linearGradient><linearGradient gradientTransform="matrix(6.123233995736766e-17,1,-1,6.123233995736766e-17,0,0)" id="SvgjsLinearGradient2051"><stop stop-color="#604848" offset="0"/><stop stop-color="#606048" offset="1"/></linearGradient></defs><rect width="900" height="512" fill="url(#SvgjsLinearGradient2047)"/><polyline points="0,512 0,67.89098115551833 112.5,16.76153963855169 225,52.94250056758357 337.5,31.543013593558772 450,75.12261306214953 562.5,91.20362482144897 675,56.669745374487334 787.5,67.32120925859074 900,35.66402823750359 902,514" fill="url(#SvgjsLinearGradient2048)" opacity="0.9"/><polyline points="0,512 0,210.92931465555094 112.5,90.23287646290504 225,126.07886601604662 337.5,172.04567456457437 450,158.33870296156158 562.5,218.60322197656993 675,155.5079340697512 787.5,171.06841887404818 900,129.38581663230124 902,514" fill="url(#SvgjsLinearGradient2049)" opacity="0.9"/><polyline points="0,512 0,332.662960177321 112.5,178.15784933884547 225,255.22420347555806 337.5,280.6143855355295 450,228.96932230884246 562.5,318.10093607756005 675,223.720749793803 787.5,265.50700357770376 900,243.57360428130465 902,514" fill="url(#SvgjsLinearGradient2049)" opacity="0.9"/><polyline points="0,512 0,442.83137203618236 112.5,295.3583163431681 225,340.35636307428723 337.5,394.2146740906987 450,300.23500088284766 562.5,415.7528692282598 675,285.3657744334808 787.5,369.9030619201719 900,355.7692867123072 902,514" fill="url(#SvgjsLinearGradient2050)" opacity="0.9"/><polyline points="0,512 0,511.08802992136015 112.5,368.22143533866495 225,406.8836310012906 337.5,465.63729949881224 450,431.7011253233683 562.5,554.6633719167914 675,411.08700930279076 787.5,501.79514953098 900,466.1216594885019 902,514" fill="url(#SvgjsLinearGradient2050)" opacity="0.9"/><polyline points="0,512 0,599.6001365047318 112.5,432.99782742481125 225,508.7157887813559 337.5,551.742489289831 450,536.5680513600238 562.5,668.8913665630062 675,506.7679480112264 787.5,597.1447421800108 900,592.7940747168371 902,514" fill="url(#SvgjsLinearGradient2051)" opacity="0.9"/></svg>